<?xml version="1.0" encoding="iso-8859-1"?>
<!-- Generator: Adobe Illustrator 19.0.0, SVG Export Plug-In . SVG Version: 6.00 Build 0)  -->
<svg version="1.1" id="Layer_1" xmlns="http://www.w3.org/2000/svg" xmlns:xlink="http://www.w3.org/1999/xlink" x="0px" y="0px"
	 viewBox="0 0 512 512" style="enable-background:new 0 0 512 512;" xml:space="preserve">
<path style="fill:#FAA85F;" d="M224,400c0-74.112,56.016-135.088,128-143.056c0-24.32,0-48.944,0-48.944
	c0-70.688-57.312-128-128-128S96,137.312,96,208v96l-48,64v48h176.944C224.352,410.736,224,405.408,224,400z"/>
<rect x="144" y="192" style="fill:#FFFFFF;" width="32" height="112"/>
<circle style="fill:#72C6EF;" cx="368" cy="400" r="112"/>
<g>
	<path style="fill:#FFFFFF;" d="M227.696,432H160c0,35.36,28.656,64,64,64c11.008,0,21.2-3.04,30.256-7.92
		C241.616,471.792,232.416,452.768,227.696,432z"/>
	<rect x="320" y="384" style="fill:#FFFFFF;" width="96" height="32"/>
</g>
<path style="fill:#00384E;" d="M245.168,474.864C238.752,478.048,231.632,480,224,480c-26.464,0-48-21.536-48-48h51.696
	c-2.352-10.304-3.696-20.992-3.696-32H64v-26.672l42.144-56.192C112,312.464,112,302.352,112,288.992v-66
	c0-5.616,0-10.672-0.432-14.992H112c0-61.744,50.24-112,112-112s112,50.256,112,112v51.696c10.304-2.352,20.992-3.696,32-3.696v-48
	c0-62.56-40.16-115.776-96-135.6V48c0-26.464-21.536-48-48-48s-48,21.536-48,48v24.4c-55.84,19.84-96,73.056-96,135.696
	c0,1.664,0,70.736,0,90.56l-48,64.016V432h112c0,44.112,35.888,80,80,80c14.992,0,28.864-4.4,40.88-11.6
	C257.376,492.688,250.8,484.096,245.168,474.864z M208,48c0-8.832,7.184-16,16-16s16,7.168,16,16v16h-32V48z"/>
<g>
</g>
<g>
</g>
<g>
</g>
<g>
</g>
<g>
</g>
<g>
</g>
<g>
</g>
<g>
</g>
<g>
</g>
<g>
</g>
<g>
</g>
<g>
</g>
<g>
</g>
<g>
</g>
<g>
</g>
</svg>
